<svg class="svgfondo" xmlns="http://www.w3.org/2000/svg" width="1265" height="651" viewBox="0 0 2000 800"><g><animateTransform attributeName="transform" attributeType="XML" type="translate" from="1" to="30" begin="0s" dur="1s" repeatCount="1"/><animateTransform attributeName="transform" attributeType="XML" type="translate" from="30" to="1" begin="1s" dur="1s" repeatCount="1"/><animateTransform attributeName="transform" attributeType="XML" type="translate" from="1" to="30" begin="2s" dur="1s" repeatCount="1"/><animateTransform attributeName="transform" attributeType="XML" type="translate" from="30" to="1" begin="3s" dur="1s" repeatCount="1"/><g><animate attributeName="opacity" attributeType="CSS" from="1" to="0" begin="2s" dur="4s" fill="freeze"/><path fill="#F0DBA5" d="M948.742 46.11L923.15 90.44l-25.594-44.33"/><path fill="#E7C267" d="M923.15 90.44l25.592-44.33 25.595 44.33"/><path fill="#E1AF11" d="M999.93 46.11l-25.593 44.33-25.595-44.33"/><path fill="#DEAC12" d="M974.337 90.44l25.594-44.33 25.593 44.33"/><path fill="#E1AF11" d="M1051.117 46.11l-25.594 44.33-25.592-44.33"/><path fill="#E7C36B" d="M1025.523 90.44l25.594-44.33 25.595 44.33"/><path fill="#F1DCA9" d="M1102.306 46.11l-25.594 44.33-25.595-44.33"/><path fill="#EDC44F" d="M923.15 90.44l-25.594 44.33-25.594-44.33"/><path fill="#E8BA2B" d="M897.556 134.77l25.593-44.33 25.592 44.33"/><path fill="#EEBE0F" d="M974.337 90.44l-25.595 44.33-25.593-44.33"/><path fill="#EAB90C" d="M948.742 134.77l25.595-44.33 25.594 44.33"/><path fill="#EEBE11" d="M1025.523 90.44l-25.592 44.33-25.593-44.33"/><path fill="#EAB90C" d="M999.93 134.77l25.593-44.33 25.594 44.33"/><path fill="#EEBE0F" d="M1076.712 90.44l-25.595 44.33-25.594-44.33"/><path fill="#E9BC2F" d="M1051.117 134.77l25.595-44.33 25.594 44.33"/><path fill="#EFC754" d="M1127.898 90.44l-25.592 44.33-25.594-44.33"/><path fill="#F3E0AC" d="M820.774 179.1l25.593-44.33 25.595 44.33"/><path fill="#EFC122" d="M897.556 134.77l-25.594 44.33-25.595-44.33"/><path fill="#EFC120" d="M871.962 179.1l25.594-44.33 25.593 44.33"/><path fill="#F0C538" d="M948.742 134.77L923.15 179.1l-25.594-44.33"/><path fill="#F0C432" d="M923.15 179.1l25.592-44.33 25.595 44.33"/><path fill="#F0C744" d="M999.93 134.77l-25.593 44.33-25.595-44.33"/><path fill="#F0C744" d="M974.337 179.1l25.594-44.33 25.593 44.33"/><path fill="#EFC746" d="M1051.117 134.77l-25.594 44.33-25.592-44.33"/><path fill="#F0C42F" d="M1025.523 179.1l25.594-44.33 25.595 44.33"/><path fill="#F0C537" d="M1102.306 134.77l-25.594 44.33-25.595-44.33"/><path fill="#EFC11C" d="M1076.712 179.1l25.594-44.33 25.592 44.33"/><path fill="#EFC122" d="M1153.492 134.77l-25.594 44.33-25.592-44.33"/><path fill="#F3E1B0" d="M1127.898 179.1l25.594-44.33 25.595 44.33"/><path fill="#F3DA95" d="M820.774 179.1l-25.593 44.33-25.594-44.33"/><path fill="#F1CC5E" d="M795.18 223.43l25.594-44.33 25.593 44.33"/><path fill="#F0C63A" d="M871.962 179.1l-25.595 44.33-25.593-44.33"/><path fill="#EFC63E" d="M846.367 223.43l25.595-44.33 25.594 44.33"/><path fill="#F0CC55" d="M923.15 179.1l-25.594 44.33-25.594-44.33"/><path fill="#F0CC54" d="M897.556 223.43l25.593-44.33 25.592 44.33"/><path fill="#F2D268" d="M974.337 179.1l-25.595 44.33-25.593-44.33"/><path fill="#F0CF61" d="M948.742 223.43l25.595-44.33 25.594 44.33"/><path fill="#CABA6E" d="M1025.523 179.1l-25.592 44.33-25.593-44.33"/><path fill="#688367" d="M999.93 223.43l25.593-44.33 25.594 44.33"/><path fill="#3D7565" d="M1076.712 179.1l-25.595 44.33-25.594-44.33"/><path fill="#D7BB58" d="M1051.117 223.43l25.595-44.33 25.594 44.33"/><path fill="#D7BC59" d="M1127.898 179.1l-25.592 44.33-25.594-44.33"/><path fill="#EFC63C" d="M1102.306 223.43l25.592-44.33 25.594 44.33"/><path fill="#F0C538" d="M1179.087 179.1l-25.595 44.33-25.594-44.33"/><path fill="#F1CC61" d="M1153.492 223.43l25.595-44.33 25.593 44.33"/><path fill="#F3DB9A" d="M1230.273 179.1l-25.593 44.33-25.593-44.33"/><path fill="#F0C53A" d="M795.18 223.43l-25.594 44.33-25.593-44.33"/><path fill="#F0C433" d="M769.586 267.76l25.595-44.33 25.594 44.33"/><path fill="#F0C847" d="M846.367 223.43l-25.593 44.33-25.593-44.33"/><path fill="#F0CB51" d="M820.774 267.76l25.593-44.33 25.595 44.33"/><path fill="#D69943" d="M897.556 223.43l-25.594 44.33-25.595-44.33"/><path fill="#CC893A" d="M871.962 267.76l25.594-44.33 25.593 44.33"/><path fill="#DAAE5F" d="M948.742 223.43l-25.593 44.33-25.594-44.33"/><path fill="#F1D880" d="M923.15 267.76l25.592-44.33 25.595 44.33"/><path fill="#EDD98C" d="M999.93 223.43l-25.593 44.33-25.595-44.33"/><path fill="#8C9B78" d="M974.337 267.76l25.594-44.33 25.593 44.33"/><path fill="#196F68" d="M1051.117 223.43l-25.594 44.33-25.592-44.33"/><path fill="#096C64" d="M1025.523 267.76l25.594-44.33 25.595 44.33"/><path fill="#00675E" d="M1102.306 223.43l-25.594 44.33-25.595-44.33"/><path fill="#386B5B" d="M1076.712 267.76l25.594-44.33 25.592 44.33"/><path fill="#386655" d="M1153.492 223.43l-25.594 44.33-25.592-44.33"/><path fill="#D7B952" d="M1127.898 267.76l25.594-44.33 25.595 44.33"/><path fill="#D7B84B" d="M1204.68 223.43l-25.593 44.33-25.595-44.33"/><path fill="#F0C433" d="M1179.087 267.76l25.593-44.33 25.593 44.33"/><path fill="#F0C53D" d="M1255.868 223.43l-25.595 44.33-25.593-44.33"/><path fill="#F1D892" d="M692.806 312.09l25.593-44.33 25.593 44.33"/><path fill="#EEBE14" d="M769.586 267.76l-25.593 44.33-25.594-44.33"/><path fill="#EFC34A" d="M795.18 312.09l25.594-44.33 25.593 44.33"/><path fill="#C3613A" d="M871.962 267.76l-25.595 44.33-25.593-44.33"/><path fill="#B97136" d="M897.556 312.09l25.593-44.33 25.592 44.33"/><path fill="#EDD48F" d="M974.337 267.76l-25.595 44.33-25.593-44.33"/><path fill="#015B51" d="M1102.306 312.09l25.592-44.33 25.594 44.33"/><path fill="#06554B" d="M1179.087 267.76l-25.595 44.33-25.594-44.33"/><path fill="#F0C228" d="M1204.68 312.09l25.593-44.33 25.595 44.33"/><path fill="#EEBE14" d="M1281.462 267.76l-25.594 44.33-25.595-44.33"/><path fill="#E7C777" d="M692.806 312.09l-25.595 44.33-25.592-44.33"/><path fill="#E7BC46" d="M667.21 356.42l25.596-44.33 25.593 44.33"/><path fill="#ECBA11" d="M743.993 312.09L718.4 356.42l-25.594-44.33"/><path fill="#DD8F5A" d="M769.586 356.42l25.595-44.33 25.594 44.33"/><path fill="#CC6949" d="M846.367 312.09l-25.593 44.33-25.593-44.33"/><path fill="#A83E1D" d="M871.962 356.42l25.594-44.33 25.593 44.33"/><path fill="#98371B" d="M948.742 312.09l-25.593 44.33-25.594-44.33"/><path fill="#22736C" d="M974.337 356.42l25.594-44.33 25.593 44.33"/><path fill="#196F68" d="M1051.117 312.09l-25.594 44.33-25.592-44.33"/><path fill="#056158" d="M1076.712 356.42l25.594-44.33 25.592 44.33"/><path fill="#015B51" d="M1153.492 312.09l-25.594 44.33-25.592-44.33"/><path fill="#D7B954" d="M1179.087 356.42l25.593-44.33 25.593 44.33"/><path fill="#F0C73E" d="M1255.868 312.09l-25.595 44.33-25.593-44.33"/><path fill="#E7BC48" d="M1281.462 356.42l25.593-44.33 25.593 44.33"/><path fill="#E8CA7C" d="M1358.243 312.09l-25.595 44.33-25.593-44.33"/><path fill="#D7A725" d="M667.21 356.42l-25.592 44.33-25.594-44.33"/><path fill="#DEAC16" d="M641.618 400.75l25.593-44.33 25.596 44.33"/><path fill="#E4B40C" d="M718.4 356.42l-25.594 44.33-25.595-44.33"/><path fill="#B34A26" d="M846.367 400.75l25.595-44.33 25.594 44.33"/><path fill="#A83E1D" d="M923.15 356.42l-25.594 44.33-25.594-44.33"/><path fill="#457A6F" d="M948.742 400.75l25.595-44.33 25.594 44.33"/><path fill="#22736C" d="M1025.523 356.42l-25.592 44.33-25.593-44.33"/><path fill="#00675E" d="M1051.117 400.75l25.595-44.33 25.594 44.33"/><path fill="#056158" d="M1127.898 356.42l-25.592 44.33-25.594-44.33"/><path fill="#ECBB10" d="M1255.868 400.75l25.594-44.33 25.593 44.33"/><path fill="#E4B30D" d="M1332.648 356.42l-25.593 44.33-25.593-44.33"/><path fill="#DEAC1A" d="M1307.055 400.75l25.593-44.33 25.595 44.33"/><path fill="#D7A727" d="M1383.837 356.42l-25.594 44.33-25.595-44.33"/><path fill="#E0BA5C" d="M616.024 445.08l25.594-44.33 25.593 44.33"/><path fill="#E0B132" d="M692.806 400.75l-25.595 44.33-25.592-44.33"/><path fill="#E4B30D" d="M667.21 445.08l25.596-44.33 25.593 44.33"/><path fill="#ECBB10" d="M743.993 400.75L718.4 445.08l-25.594-44.33"/><path fill="#F0C228" d="M718.4 445.08l25.593-44.33 25.593 44.33"/><path fill="#F0C743" d="M795.18 400.75l-25.594 44.33-25.593-44.33"/><path fill="#C15936" d="M820.774 445.08l25.593-44.33 25.595 44.33"/><path fill="#B34A26" d="M897.556 400.75l-25.594 44.33-25.595-44.33"/><path fill="#686650" d="M923.15 445.08l25.592-44.33 25.595 44.33"/><path fill="#2C7670" d="M999.93 400.75l-25.593 44.33-25.595-44.33"/><path fill="#096C64" d="M1025.523 445.08l25.594-44.33 25.595 44.33"/><path fill="#00675E" d="M1102.306 400.75l-25.594 44.33-25.595-44.33"/><path fill="#056158" d="M1076.712 445.08l25.594-44.33 25.592 44.33"/><path fill="#8F9670" d="M1153.492 400.75l-25.594 44.33-25.592-44.33"/><path fill="#E1CD80" d="M1127.898 445.08l25.594-44.33 25.595 44.33"/><path fill="#F1D370" d="M1204.68 400.75l-25.593 44.33-25.595-44.33"/><path fill="#F0C226" d="M1230.273 445.08l25.595-44.33 25.594 44.33"/><path fill="#ECBB0A" d="M1307.055 400.75l-25.593 44.33-25.594-44.33"/><path fill="#E4B30D" d="M1281.462 445.08l25.593-44.33 25.593 44.33"/><path fill="#E0B237" d="M1358.243 400.75l-25.595 44.33-25.593-44.33"/><path fill="#E2BC61" d="M1332.648 445.08l25.595-44.33 25.594 44.33"/><path fill="#EAC974" d="M718.4 445.08l-25.594 44.33-25.595-44.33"/><path fill="#EAB90C" d="M692.806 489.41l25.593-44.33 25.593 44.33"/><path fill="#EFC11A" d="M769.586 445.08l-25.593 44.33-25.594-44.33"/><path fill="#EAC163" d="M795.18 489.41l25.594-44.33 25.593 44.33"/><path fill="#CE8044" d="M871.962 445.08l-25.595 44.33-25.593-44.33"/><path fill="#196F68" d="M999.93 489.41l25.593-44.33 25.594 44.33"/><path fill="#096C64" d="M1076.712 445.08l-25.595 44.33-25.594-44.33"/><path fill="#00675E" d="M1051.117 489.41l25.595-44.33 25.594 44.33"/><path fill="#99A077" d="M1127.898 445.08l-25.592 44.33-25.594-44.33"/><path fill="#E5D288" d="M1102.306 489.41l25.592-44.33 25.594 44.33"/><path fill="#F1D577" d="M1179.087 445.08l-25.595 44.33-25.594-44.33"/><path fill="#F0C63A" d="M1204.68 489.41l25.593-44.33 25.595 44.33"/><path fill="#EFBF18" d="M1281.462 445.08l-25.594 44.33-25.595-44.33"/><path fill="#EAB90C" d="M1255.868 489.41l25.594-44.33 25.593 44.33"/><path fill="#EBCB78" d="M1332.648 445.08l-25.593 44.33-25.593-44.33"/><path fill="#EEBF22" d="M718.4 533.74l25.593-44.33 25.593 44.33"/><path fill="#EFC127" d="M795.18 489.41l-25.594 44.33-25.593-44.33"/><path fill="#EFC643" d="M769.586 533.74l25.595-44.33 25.594 44.33"/><path fill="#C9A74D" d="M846.367 489.41l-25.593 44.33-25.593-44.33"/><path fill="#DFB35A" d="M820.774 533.74l25.593-44.33 25.595 44.33"/><path fill="#AB6A36" d="M897.556 489.41l-25.594 44.33-25.595-44.33"/><path fill="#A5401E" d="M871.962 533.74l25.594-44.33 25.593 44.33"/><path fill="#6B755F" d="M948.742 489.41l-25.593 44.33-25.594-44.33"/><path fill="#357872" d="M923.15 533.74l25.592-44.33 25.595 44.33"/><path fill="#577565" d="M999.93 489.41l-25.593 44.33-25.595-44.33"/><path fill="#DFB35A" d="M974.337 533.74l25.594-44.33 25.593 44.33"/><path fill="#507060" d="M1051.117 489.41l-25.594 44.33-25.592-44.33"/><path fill="#196A62" d="M1025.523 533.74l25.594-44.33 25.595 44.33"/><path fill="#908F68" d="M1102.306 489.41l-25.594 44.33-25.595-44.33"/><path fill="#E1CD83" d="M1076.712 533.74l25.594-44.33 25.592 44.33"/><path fill="#CAAF63" d="M1153.492 489.41l-25.594 44.33-25.592-44.33"/><path fill="#E9CA69" d="M1127.898 533.74l25.594-44.33 25.595 44.33"/><path fill="#D4B14B" d="M1204.68 489.41l-25.593 44.33-25.595-44.33"/><path fill="#F0C741" d="M1179.087 533.74l25.593-44.33 25.593 44.33"/><path fill="#EFC127" d="M1255.868 489.41l-25.595 44.33-25.593-44.33"/><path fill="#EEBF24" d="M1230.273 533.74l25.595-44.33 25.594 44.33"/><path fill="#F2D279" d="M743.993 578.07l25.593-44.33 25.595 44.33"/><path fill="#F0C84B" d="M820.774 533.74l-25.593 44.33-25.594-44.33"/><path fill="#F0C73F" d="M795.18 578.07l25.594-44.33 25.593 44.33"/><path fill="#F0C846" d="M871.962 533.74l-25.595 44.33-25.593-44.33"/><path fill="#F0CF61" d="M846.367 578.07l25.595-44.33 25.594 44.33"/><path fill="#F1D063" d="M923.15 533.74l-25.594 44.33-25.594-44.33"/><path fill="#F1D678" d="M897.556 578.07l25.593-44.33 25.592 44.33"/><path fill="#F1D576" d="M974.337 533.74l-25.595 44.33-25.593-44.33"/><path fill="#F2DA85" d="M948.742 578.07l25.595-44.33 25.594 44.33"/><path fill="#F1D67B" d="M1025.523 533.74l-25.592 44.33-25.593-44.33"/><path fill="#F2DA85" d="M999.93 578.07l25.593-44.33 25.594 44.33"/><path fill="#F1D576" d="M1076.712 533.74l-25.595 44.33-25.594-44.33"/><path fill="#F1D578" d="M1051.117 578.07l25.595-44.33 25.594 44.33"/><path fill="#F0CF62" d="M1127.898 533.74l-25.592 44.33-25.594-44.33"/><path fill="#F0CF61" d="M1102.306 578.07l25.592-44.33 25.594 44.33"/><path fill="#F0C846" d="M1179.087 533.74l-25.595 44.33-25.594-44.33"/><path fill="#EFC63E" d="M1153.492 578.07l25.595-44.33 25.593 44.33"/><path fill="#F0C84D" d="M1230.273 533.74l-25.593 44.33-25.593-44.33"/><path fill="#F3D47D" d="M1204.68 578.07l25.593-44.33 25.595 44.33"/><path fill="#F3D991" d="M846.367 578.07l-25.593 44.33-25.593-44.33"/><path fill="#F0C42E" d="M820.774 622.4l25.593-44.33 25.595 44.33"/><path fill="#F0C432" d="M897.556 578.07l-25.594 44.33-25.595-44.33"/><path fill="#F0C94B" d="M871.962 622.4l25.594-44.33 25.593 44.33"/><path fill="#F0C847" d="M948.742 578.07L923.15 622.4l-25.594-44.33"/><path fill="#F0CD5B" d="M923.15 622.4l25.592-44.33 25.595 44.33"/><path fill="#F0CC54" d="M999.93 578.07l-25.593 44.33-25.595-44.33"/><path fill="#F0CF62" d="M974.337 622.4l25.594-44.33 25.593 44.33"/><path fill="#F0CC54" d="M1051.117 578.07l-25.594 44.33-25.592-44.33"/><path fill="#F0CD5B" d="M1025.523 622.4l25.594-44.33 25.595 44.33"/><path fill="#F0C847" d="M1102.306 578.07l-25.594 44.33-25.595-44.33"/><path fill="#F0C94B" d="M1076.712 622.4l25.594-44.33 25.592 44.33"/><path fill="#F0C42F" d="M1153.492 578.07l-25.594 44.33-25.592-44.33"/><path fill="#F0C32C" d="M1127.898 622.4l25.594-44.33 25.595 44.33"/><path fill="#F2DA96" d="M1204.68 578.07l-25.593 44.33-25.595-44.33"/><path fill="#F0C233" d="M846.367 666.73l25.595-44.33 25.594 44.33"/><path fill="#EEBF20" d="M923.15 622.4l-25.594 44.33-25.594-44.33"/><path fill="#F0C329" d="M897.556 666.73l25.593-44.33 25.592 44.33"/><path fill="#EFC122" d="M974.337 622.4l-25.595 44.33-25.593-44.33"/><path fill="#F0C435" d="M948.742 666.73l25.595-44.33 25.594 44.33"/><path fill="#F0C226" d="M1025.523 622.4l-25.592 44.33-25.593-44.33"/><path fill="#F0C435" d="M999.93 666.73l25.593-44.33 25.594 44.33"/><path fill="#EFC120" d="M1076.712 622.4l-25.595 44.33-25.594-44.33"/><path fill="#F0C22A" d="M1051.117 666.73l25.595-44.33 25.594 44.33"/><path fill="#EEBF22" d="M1127.898 622.4l-25.592 44.33-25.594-44.33"/><path fill="#F0C337" d="M1102.306 666.73l25.592-44.33 25.594 44.33"/><path fill="#F0D58E" d="M871.962 711.06l25.594-44.33 25.593 44.33"/><path fill="#E9C153" d="M948.742 666.73l-25.593 44.33-25.594-44.33"/><path fill="#E9B90D" d="M923.15 711.06l25.592-44.33 25.595 44.33"/><path fill="#E6B30C" d="M999.93 666.73l-25.593 44.33-25.595-44.33"/><path fill="#EABA0C" d="M974.337 711.06l25.594-44.33 25.593 44.33"/><path fill="#E6B30C" d="M1051.117 666.73l-25.594 44.33-25.592-44.33"/><path fill="#E9B90D" d="M1025.523 711.06l25.594-44.33 25.595 44.33"/><path fill="#EAC258" d="M1102.306 666.73l-25.594 44.33-25.595-44.33"/><path fill="#F0D693" d="M1076.712 711.06l25.594-44.33 25.592 44.33"/><path fill="#DDAB13" d="M948.742 755.39l25.595-44.33 25.594 44.33"/><path fill="#DAA815" d="M1025.523 711.06l-25.592 44.33-25.593-44.33"/><path fill="#DDAB13" d="M999.93 755.39l25.593-44.33 25.594 44.33"/></g><path fill="#F0C22A" d="M743.993 312.09l25.593-44.33 25.595 44.33"><animate attributeName="fill" attributeType="CSS" dur="4s" values="#F0C538;#000" repeatCount="1" begin="2s" fill="freeze"/></path><path fill="#EFC34A" d="M820.774 267.76l-25.593 44.33-25.594-44.33"><animate attributeName="fill" attributeType="CSS" dur="4s" values="#F0C538;#000" repeatCount="1" begin="2s" fill="freeze"/></path><path fill="#B54E28" d="M846.367 312.09l25.595-44.33 25.594 44.33"><animate attributeName="fill" attributeType="CSS" dur="4s" values="#F0C538;#000" repeatCount="1" begin="2s" fill="freeze"/></path><path fill="#A83E1D" d="M923.15 267.76l-25.594 44.33-25.594-44.33"><animate attributeName="fill" attributeType="CSS" dur="4s" values="#F0C538;#000" repeatCount="1" begin="2s" fill="freeze"/></path><path fill="#DDD296" d="M948.742 312.09l25.595-44.33 25.594 44.33"><animate attributeName="fill" attributeType="CSS" dur="4s" values="#F0C538;#000" repeatCount="1" begin="2s" fill="freeze"/></path><path fill="#26746C" d="M1025.523 267.76l-25.592 44.33-25.593-44.33"><animate attributeName="fill" attributeType="CSS" dur="4s" values="#F0C538;#000" repeatCount="1" begin="2s" fill="freeze"/></path><path fill="#196F68" d="M999.93 312.09l25.593-44.33 25.594 44.33"><animate attributeName="fill" attributeType="CSS" dur="4s" values="#F0C538;#000" repeatCount="1" begin="2s" fill="freeze"/></path><path fill="#096C64" d="M1076.712 267.76l-25.595 44.33-25.594-44.33"><animate attributeName="fill" attributeType="CSS" dur="4s" values="#F0C538;#000" repeatCount="1" begin="2s" fill="freeze"/></path><path fill="#00675E" d="M1051.117 312.09l25.595-44.33 25.594 44.33"><animate attributeName="fill" attributeType="CSS" dur="4s" values="#F0C538;#000" repeatCount="1" begin="2s" fill="freeze"/></path><path fill="#056158" d="M1127.898 267.76l-25.592 44.33-25.594-44.33"><animate attributeName="fill" attributeType="CSS" dur="4s" values="#F0C538;#000" repeatCount="1" begin="2s" fill="freeze"/></path><path fill="#385D49" d="M1153.492 312.09l25.595-44.33 25.593 44.33"><animate attributeName="fill" attributeType="CSS" dur="4s" values="#F0C538;#000" repeatCount="1" begin="2s" fill="freeze"/></path><path fill="#8B8549" d="M1230.273 267.76l-25.593 44.33-25.593-44.33"><animate attributeName="fill" attributeType="CSS" dur="4s" values="#F0C538;#000" repeatCount="1" begin="2s" fill="freeze"/></path><path fill="#F1D898" d="M1255.868 312.09l25.594-44.33 25.593 44.33"><animate attributeName="fill" attributeType="CSS" dur="4s" values="#F0C538;#000" repeatCount="1" begin="2s" fill="freeze"/></path><path fill="#EFC120" d="M718.4 356.42l25.593-44.33 25.593 44.33"><animate attributeName="fill" attributeType="CSS" dur="4s" values="#F0C538;#000" repeatCount="1" begin="2s" fill="freeze"/></path><path fill="#EAB451" d="M795.18 312.09l-25.594 44.33-25.593-44.33"><animate attributeName="fill" attributeType="CSS" dur="4s" values="#F0C538;#000" repeatCount="1" begin="2s" fill="freeze"/></path><path fill="#C15936" d="M820.774 356.42l25.593-44.33 25.595 44.33"><animate attributeName="fill" attributeType="CSS" dur="4s" values="#F0C538;#000" repeatCount="1" begin="2s" fill="freeze"/></path><path fill="#B34A26" d="M897.556 312.09l-25.594 44.33-25.595-44.33"><animate attributeName="fill" attributeType="CSS" dur="4s" values="#F0C538;#000" repeatCount="1" begin="2s" fill="freeze"/></path><path fill="#D1A468" d="M923.15 356.42l25.592-44.33 25.595 44.33"><animate attributeName="fill" attributeType="CSS" dur="4s" values="#F0C538;#000" repeatCount="1" begin="2s" fill="freeze"/></path><path fill="#7A9580" d="M999.93 312.09l-25.593 44.33-25.595-44.33"><animate attributeName="fill" attributeType="CSS" dur="4s" values="#F0C538;#000" repeatCount="1" begin="2s" fill="freeze"/></path><path fill="#096C64" d="M1025.523 356.42l25.594-44.33 25.595 44.33"><animate attributeName="fill" attributeType="CSS" dur="4s" values="#F0C538;#000" repeatCount="1" begin="2s" fill="freeze"/></path><path fill="#00675E" d="M1102.306 312.09l-25.594 44.33-25.595-44.33"><animate attributeName="fill" attributeType="CSS" dur="4s" values="#F0C538;#000" repeatCount="1" begin="2s" fill="freeze"/></path><path fill="#06554B" d="M1127.898 356.42l25.594-44.33 25.595 44.33"><animate attributeName="fill" attributeType="CSS" dur="4s" values="#F0C538;#000" repeatCount="1" begin="2s" fill="freeze"/></path><path fill="#7A8057" d="M1204.68 312.09l-25.593 44.33-25.595-44.33"><animate attributeName="fill" attributeType="CSS" dur="4s" values="#F0C538;#000" repeatCount="1" begin="2s" fill="freeze"/></path><path fill="#EFC11C" d="M1230.273 356.42l25.595-44.33 25.594 44.33"><animate attributeName="fill" attributeType="CSS" dur="4s" values="#F0C538;#000" repeatCount="1" begin="2s" fill="freeze"/></path><path fill="#ECBA0A" d="M1307.055 312.09l-25.593 44.33-25.594-44.33"><animate attributeName="fill" attributeType="CSS" dur="4s" values="#F0C538;#000" repeatCount="1" begin="2s" fill="freeze"/></path><path fill="#ECBC10" d="M692.806 400.75l25.593-44.33 25.593 44.33"><animate attributeName="fill" attributeType="CSS" dur="4s" values="#F0C538;#000" repeatCount="1" begin="2s" fill="freeze"/></path><path fill="#F0C228" d="M769.586 356.42l-25.593 44.33-25.594-44.33"><animate attributeName="fill" attributeType="CSS" dur="4s" values="#F0C538;#000" repeatCount="1" begin="2s" fill="freeze"/></path><path fill="#EFC348" d="M743.993 400.75l25.593-44.33 25.595 44.33"><animate attributeName="fill" attributeType="CSS" dur="4s" values="#F0C538;#000" repeatCount="1" begin="2s" fill="freeze"/></path><path fill="#E19E5C" d="M820.774 356.42l-25.593 44.33-25.594-44.33"><animate attributeName="fill" attributeType="CSS" dur="4s" values="#F0C538;#000" repeatCount="1" begin="2s" fill="freeze"/></path><path fill="#CC6949" d="M795.18 400.75l25.594-44.33 25.593 44.33"><animate attributeName="fill" attributeType="CSS" dur="4s" values="#F0C538;#000" repeatCount="1" begin="2s" fill="freeze"/></path><path fill="#C15936" d="M871.962 356.42l-25.595 44.33-25.593-44.33"><animate attributeName="fill" attributeType="CSS" dur="4s" values="#F0C538;#000" repeatCount="1" begin="2s" fill="freeze"/></path><path fill="#98371B" d="M897.556 400.75l25.593-44.33 25.592 44.33"><animate attributeName="fill" attributeType="CSS" dur="4s" values="#F0C538;#000" repeatCount="1" begin="2s" fill="freeze"/></path><path fill="#804C2F" d="M974.337 356.42l-25.595 44.33-25.593-44.33"><animate attributeName="fill" attributeType="CSS" dur="4s" values="#F0C538;#000" repeatCount="1" begin="2s" fill="freeze"/></path><path fill="#196F68" d="M999.93 400.75l25.593-44.33 25.594 44.33"><animate attributeName="fill" attributeType="CSS" dur="4s" values="#F0C538;#000" repeatCount="1" begin="2s" fill="freeze"/></path><path fill="#096C64" d="M1076.712 356.42l-25.595 44.33-25.594-44.33"><animate attributeName="fill" attributeType="CSS" dur="4s" values="#F0C538;#000" repeatCount="1" begin="2s" fill="freeze"/></path><path fill="#015B51" d="M1102.306 400.75l25.592-44.33 25.594 44.33"><animate attributeName="fill" attributeType="CSS" dur="4s" values="#F0C538;#000" repeatCount="1" begin="2s" fill="freeze"/></path><path fill="#818A64" d="M1179.087 356.42l-25.595 44.33-25.594-44.33"><animate attributeName="fill" attributeType="CSS" dur="4s" values="#F0C538;#000" repeatCount="1" begin="2s" fill="freeze"/></path><path fill="#DDC56C" d="M1153.492 400.75l25.595-44.33 25.593 44.33"><animate attributeName="fill" attributeType="CSS" dur="4s" values="#F0C538;#000" repeatCount="1" begin="2s" fill="freeze"/></path><path fill="#F0CD5B" d="M1230.273 356.42l-25.593 44.33-25.593-44.33"><animate attributeName="fill" attributeType="CSS" dur="4s" values="#F0C538;#000" repeatCount="1" begin="2s" fill="freeze"/></path><path fill="#F0C743" d="M1204.68 400.75l25.593-44.33 25.595 44.33"><animate attributeName="fill" attributeType="CSS" dur="4s" values="#F0C538;#000" repeatCount="1" begin="2s" fill="freeze"/></path><path fill="#F0C226" d="M1281.462 356.42l-25.594 44.33-25.595-44.33"><animate attributeName="fill" attributeType="CSS" dur="4s" values="#F0C538;#000" repeatCount="1" begin="2s" fill="freeze"/></path><path fill="#EEC45C" d="M769.586 445.08l25.595-44.33 25.594 44.33"><animate attributeName="fill" attributeType="CSS" dur="4s" values="#F0C538;#000" repeatCount="1" begin="2s" fill="freeze"/></path><path fill="#D89254" d="M846.367 400.75l-25.593 44.33-25.593-44.33"><animate attributeName="fill" attributeType="CSS" dur="4s" values="#F0C538;#000" repeatCount="1" begin="2s" fill="freeze"/></path><path fill="#A83E1D" d="M871.962 445.08l25.594-44.33 25.593 44.33"><animate attributeName="fill" attributeType="CSS" dur="4s" values="#F0C538;#000" repeatCount="1" begin="2s" fill="freeze"/></path><path fill="#943F1F" d="M948.742 400.75l-25.593 44.33-25.594-44.33"><animate attributeName="fill" attributeType="CSS" dur="4s" values="#F0C538;#000" repeatCount="1" begin="2s" fill="freeze"/></path><path fill="#22736C" d="M974.337 445.08l25.594-44.33 25.593 44.33"><animate attributeName="fill" attributeType="CSS" dur="4s" values="#F0C538;#000" repeatCount="1" begin="2s" fill="freeze"/></path><path fill="#196F68" d="M1051.117 400.75l-25.594 44.33-25.592-44.33"><animate attributeName="fill" attributeType="CSS" dur="4s" values="#F0C538;#000" repeatCount="1" begin="2s" fill="freeze"/></path><path fill="#F0CD5A" d="M1179.087 445.08l25.593-44.33 25.593 44.33"><animate attributeName="fill" attributeType="CSS" dur="4s" values="#F0C538;#000" repeatCount="1" begin="2s" fill="freeze"/></path><path fill="#F0C741" d="M1255.868 400.75l-25.595 44.33-25.593-44.33"><animate attributeName="fill" attributeType="CSS" dur="4s" values="#F0C538;#000" repeatCount="1" begin="2s" fill="freeze"/></path><path fill="#F0C63C" d="M743.993 489.41l25.593-44.33 25.595 44.33"><animate attributeName="fill" attributeType="CSS" dur="4s" values="#F0C538;#000" repeatCount="1" begin="2s" fill="freeze"/></path><path fill="#F0CB50" d="M820.774 445.08l-25.593 44.33-25.594-44.33"><animate attributeName="fill" attributeType="CSS" dur="4s" values="#F0C538;#000" repeatCount="1" begin="2s" fill="freeze"/></path><path fill="#B34A26" d="M846.367 489.41l25.595-44.33 25.594 44.33"><animate attributeName="fill" attributeType="CSS" dur="4s" values="#F0C538;#000" repeatCount="1" begin="2s" fill="freeze"/></path><path fill="#A83E1D" d="M923.15 445.08l-25.594 44.33-25.594-44.33"><animate attributeName="fill" attributeType="CSS" dur="4s" values="#F0C538;#000" repeatCount="1" begin="2s" fill="freeze"/></path><path fill="#8C502F" d="M897.556 489.41l25.593-44.33 25.592 44.33"><animate attributeName="fill" attributeType="CSS" dur="4s" values="#F0C538;#000" repeatCount="1" begin="2s" fill="freeze"/></path><path fill="#327A74" d="M974.337 445.08l-25.595 44.33-25.593-44.33"><animate attributeName="fill" attributeType="CSS" dur="4s" values="#F0C538;#000" repeatCount="1" begin="2s" fill="freeze"/></path><path fill="#2C7670" d="M948.742 489.41l25.595-44.33 25.594 44.33"><animate attributeName="fill" attributeType="CSS" dur="4s" values="#F0C538;#000" repeatCount="1" begin="2s" fill="freeze"/></path><path fill="#22736C" d="M1025.523 445.08l-25.592 44.33-25.593-44.33"><animate attributeName="fill" attributeType="CSS" dur="4s" values="#F0C538;#000" repeatCount="1" begin="2s" fill="freeze"/></path><path fill="#F2D268" d="M1153.492 489.41l25.595-44.33 25.593 44.33"><animate attributeName="fill" attributeType="CSS" dur="4s" values="#F0C538;#000" repeatCount="1" begin="2s" fill="freeze"/></path><path fill="#F0CB50" d="M1230.273 445.08l-25.593 44.33-25.593-44.33"><animate attributeName="fill" attributeType="CSS" dur="4s" values="#F0C538;#000" repeatCount="1" begin="2s" fill="freeze"/></path></g><g><animate attributeName="opacity" attributeType="CSS" from="0" to="1" begin="0s" dur="10s" fill="freeze"/><text transform="translate(394.968 420)" font-family="Arial Black" font-size="42">PAGE NOT</text></g><g><animate attributeName="opacity" attributeType="CSS" from="0" to="1" begin="0s" dur="10s" fill="freeze"/><text transform="translate(1442.032 420)" font-family="Arial Black" font-size="42">FOUND</text></g></svg>