<svg xmlns="http://www.w3.org/2000/svg" width="589.619" height="589.619"><path fill="#aaa" d="M568.247 72.536L523.25 503.07c-1.537 14.733-13.554 25.742-27.868 26.607l-5.508-120.146 13 1.36 35.69-341.46-378.58-39.562-5 47.878-30.16 1.38 5.47-52.37c1.717-16.404 16.39-28.302 32.794-26.593l378.574 39.564c16.405 1.724 28.302 16.405 26.585 32.81zm-107.13 35.988l19.838 432.424c.754 16.48-11.98 30.436-28.45 31.19l-380.232 17.45c-16.48.753-30.436-11.98-31.19-28.45L21.24 128.713c-.755-16.48 11.978-30.437 28.45-31.19l380.23-17.45c16.487-.754 30.443 11.98 31.197 28.45zM66.795 470.3l380.23-17.45-15.73-342.96L51.06 127.34 66.795 470.3zm360.602-119.677c-.485-10.575-4.702-20.636-11.904-28.398l-26.733-28.823c-9.3-8.91-24.062-8.232-32.504 1.492l-48.385 56.014-105.084-129.44c-9.03-11.164-26.137-11.053-34.95.262L85.7 329.95c-6.336 8.35-9.546 18.658-9.06 29.122l4.387 95.628 350.415-16.076-4.045-88zm-61.46-118.19c22.666-1.037 40.16-20.226 39.123-42.885-1.037-22.667-20.226-40.16-42.885-39.123-22.666 1.037-40.16 20.226-39.123 42.885 1.045 22.666 20.225 40.168 42.885 39.123z"/></svg>