<svg xmlns="http://www.w3.org/2000/svg" width="50" height="50" viewBox="0 0 50 50"><path d="M25.095 34.467c-7.322 0-13.28-6.16-13.28-13.733v-6.72c0-7.572 5.958-13.733 13.28-13.733 7.323 0 13.28 6.162 13.28 13.735v6.718c0 7.573-5.957 13.734-13.28 13.734zm0-32.01c-6.162 0-11.176 5.185-11.176 11.558v6.718c0 6.373 5.013 11.558 11.175 11.558 6.163 0 11.177-5.184 11.177-11.557v-6.718c0-6.373-5.014-11.558-11.177-11.558zM42.863 49.72H7.133c-3.107 0-5.636-2.616-5.636-5.83v-5.12c0-1.905.927-4.457 5.343-5.787l5.347-1.53c.56-.16 1.14.18 1.295.76s-.174 1.18-.733 1.34l-5.334 1.524c-3.813 1.15-3.813 3.064-3.813 3.693v5.12c0 2.014 1.585 3.653 3.532 3.653h35.73c1.947 0 3.532-1.64 3.532-3.654v-5.12c0-1.698-1.286-2.942-3.824-3.696l-5.085-1.47c-.56-.16-.887-.762-.73-1.34.157-.58.737-.92 1.297-.756l5.094 1.472c4.426 1.316 5.353 3.875 5.353 5.79v5.12c-.002 3.214-2.53 5.83-5.64 5.83z"/></svg>